<mxfile host="app.diagrams.net" modified="2023-08-03T18:59:07.777Z" agent="Mozilla/5.0 (X11; Linux x86_64) AppleWebKit/537.36 (KHTML, like Gecko) Chrome/114.0.0.0 Safari/537.36" etag="LfTYq9JUUvpISV5HljYK" version="21.6.6" type="device">
  <diagram name="Page-1" id="3z_Mr8H-P-6z8Ykqlvhd">
    <mxGraphModel dx="950" dy="1635" grid="1" gridSize="10" guides="1" tooltips="1" connect="1" arrows="1" fold="1" page="1" pageScale="1" pageWidth="827" pageHeight="1169" math="0" shadow="0">
      <root>
        <mxCell id="0" />
        <mxCell id="1" parent="0" />
        <mxCell id="rydpSabuBmDk_7PMM623-3" value="AT THE TIME OF INVOICE CREATION SELLER DECIDES THIS INVOICE IS GOING TO BE RECURRING OR NOT" style="rounded=0;whiteSpace=wrap;html=1;" vertex="1" parent="1">
          <mxGeometry x="460" y="180" width="150" height="90" as="geometry" />
        </mxCell>
        <mxCell id="rydpSabuBmDk_7PMM623-8" value="" style="endArrow=open;html=1;rounded=0;exitX=1;exitY=0.5;exitDx=0;exitDy=0;entryX=0;entryY=0.5;entryDx=0;entryDy=0;endFill=0;" edge="1" parent="1" target="rydpSabuBmDk_7PMM623-9" source="rydpSabuBmDk_7PMM623-3">
          <mxGeometry width="50" height="50" relative="1" as="geometry">
            <mxPoint x="620" y="225" as="sourcePoint" />
            <mxPoint x="740" y="220" as="targetPoint" />
          </mxGeometry>
        </mxCell>
        <mxCell id="rydpSabuBmDk_7PMM623-9" value="IF THIS INVOICE IS RECURRING&amp;nbsp;" style="rounded=0;whiteSpace=wrap;html=1;" vertex="1" parent="1">
          <mxGeometry x="677" y="180" width="150" height="90" as="geometry" />
        </mxCell>
        <mxCell id="rydpSabuBmDk_7PMM623-10" value="YES" style="rounded=0;whiteSpace=wrap;html=1;" vertex="1" parent="1">
          <mxGeometry x="900" y="90" width="150" height="90" as="geometry" />
        </mxCell>
        <mxCell id="rydpSabuBmDk_7PMM623-11" value="NO" style="rounded=0;whiteSpace=wrap;html=1;" vertex="1" parent="1">
          <mxGeometry x="900" y="270" width="150" height="90" as="geometry" />
        </mxCell>
        <mxCell id="rydpSabuBmDk_7PMM623-12" value="" style="endArrow=open;html=1;rounded=0;exitX=1;exitY=0.5;exitDx=0;exitDy=0;entryX=0;entryY=0.5;entryDx=0;entryDy=0;endFill=0;edgeStyle=orthogonalEdgeStyle;" edge="1" parent="1" source="rydpSabuBmDk_7PMM623-9" target="rydpSabuBmDk_7PMM623-10">
          <mxGeometry width="50" height="50" relative="1" as="geometry">
            <mxPoint x="620" y="235" as="sourcePoint" />
            <mxPoint x="687" y="235" as="targetPoint" />
          </mxGeometry>
        </mxCell>
        <mxCell id="rydpSabuBmDk_7PMM623-13" value="" style="endArrow=open;html=1;rounded=0;exitX=1;exitY=0.5;exitDx=0;exitDy=0;entryX=0;entryY=0.5;entryDx=0;entryDy=0;endFill=0;edgeStyle=orthogonalEdgeStyle;" edge="1" parent="1" source="rydpSabuBmDk_7PMM623-9" target="rydpSabuBmDk_7PMM623-11">
          <mxGeometry width="50" height="50" relative="1" as="geometry">
            <mxPoint x="837" y="235" as="sourcePoint" />
            <mxPoint x="910" y="145" as="targetPoint" />
          </mxGeometry>
        </mxCell>
        <mxCell id="rydpSabuBmDk_7PMM623-14" value="SELECT THE REPEAT PERIOD AND CHOOSE THE DATES WHEN IT IS START AND END AS PER AGREMENT BETWEEN THEM OR NOT" style="rounded=0;whiteSpace=wrap;html=1;" vertex="1" parent="1">
          <mxGeometry x="1120" y="90" width="150" height="90" as="geometry" />
        </mxCell>
        <mxCell id="rydpSabuBmDk_7PMM623-15" value="" style="endArrow=open;html=1;rounded=0;exitX=1;exitY=0.5;exitDx=0;exitDy=0;entryX=0;entryY=0.5;entryDx=0;entryDy=0;endFill=0;" edge="1" parent="1" source="rydpSabuBmDk_7PMM623-10" target="rydpSabuBmDk_7PMM623-14">
          <mxGeometry width="50" height="50" relative="1" as="geometry">
            <mxPoint x="1050" y="135" as="sourcePoint" />
            <mxPoint x="1120" y="134.5" as="targetPoint" />
          </mxGeometry>
        </mxCell>
        <mxCell id="rydpSabuBmDk_7PMM623-17" value="SO THE INVOICE IS&amp;nbsp; AUTOMATICALY CREATED&amp;nbsp;" style="rounded=0;whiteSpace=wrap;html=1;" vertex="1" parent="1">
          <mxGeometry x="1340" y="90" width="150" height="90" as="geometry" />
        </mxCell>
        <mxCell id="rydpSabuBmDk_7PMM623-18" value="" style="endArrow=open;html=1;rounded=0;exitX=1;exitY=0.5;exitDx=0;exitDy=0;entryX=0;entryY=0.5;entryDx=0;entryDy=0;endFill=0;" edge="1" parent="1" target="rydpSabuBmDk_7PMM623-17" source="rydpSabuBmDk_7PMM623-14">
          <mxGeometry width="50" height="50" relative="1" as="geometry">
            <mxPoint x="1270" y="135" as="sourcePoint" />
            <mxPoint x="1340" y="134.5" as="targetPoint" />
          </mxGeometry>
        </mxCell>
        <mxCell id="rydpSabuBmDk_7PMM623-20" value="SAVED AS DRAFT AUTOMATICALLY" style="rounded=0;whiteSpace=wrap;html=1;" vertex="1" parent="1">
          <mxGeometry x="1560" y="-30" width="150" height="90" as="geometry" />
        </mxCell>
        <mxCell id="rydpSabuBmDk_7PMM623-21" value="" style="endArrow=open;html=1;rounded=0;exitX=1;exitY=0.5;exitDx=0;exitDy=0;entryX=0;entryY=0.5;entryDx=0;entryDy=0;endFill=0;edgeStyle=orthogonalEdgeStyle;" edge="1" parent="1" target="rydpSabuBmDk_7PMM623-20" source="rydpSabuBmDk_7PMM623-17">
          <mxGeometry width="50" height="50" relative="1" as="geometry">
            <mxPoint x="1490" y="45" as="sourcePoint" />
            <mxPoint x="1560" y="44.5" as="targetPoint" />
          </mxGeometry>
        </mxCell>
        <mxCell id="rydpSabuBmDk_7PMM623-22" value="AUTOMATICALLY SENT INVOICE TO THE CUSTOMER AND REQUEST PAYMENT" style="rounded=0;whiteSpace=wrap;html=1;" vertex="1" parent="1">
          <mxGeometry x="1560" y="220" width="150" height="90" as="geometry" />
        </mxCell>
        <mxCell id="rydpSabuBmDk_7PMM623-23" value="" style="endArrow=open;html=1;rounded=0;exitX=1;exitY=0.5;exitDx=0;exitDy=0;entryX=0;entryY=0.5;entryDx=0;entryDy=0;endFill=0;edgeStyle=orthogonalEdgeStyle;" edge="1" parent="1" target="rydpSabuBmDk_7PMM623-22" source="rydpSabuBmDk_7PMM623-17">
          <mxGeometry width="50" height="50" relative="1" as="geometry">
            <mxPoint x="1490" y="205" as="sourcePoint" />
            <mxPoint x="1560" y="204.5" as="targetPoint" />
          </mxGeometry>
        </mxCell>
        <mxCell id="rydpSabuBmDk_7PMM623-24" value="CHARGED AUTOMATICALLY AS PER CREDIT CARD AND THEN SELLER SENT INVOICE" style="rounded=0;whiteSpace=wrap;html=1;" vertex="1" parent="1">
          <mxGeometry x="1560" y="90" width="150" height="90" as="geometry" />
        </mxCell>
        <mxCell id="rydpSabuBmDk_7PMM623-25" value="" style="endArrow=open;html=1;rounded=0;exitX=1;exitY=0.5;exitDx=0;exitDy=0;entryX=0;entryY=0.5;entryDx=0;entryDy=0;endFill=0;" edge="1" parent="1" target="rydpSabuBmDk_7PMM623-24" source="rydpSabuBmDk_7PMM623-17">
          <mxGeometry width="50" height="50" relative="1" as="geometry">
            <mxPoint x="1300" y="165" as="sourcePoint" />
            <mxPoint x="1370" y="164.5" as="targetPoint" />
          </mxGeometry>
        </mxCell>
        <mxCell id="rydpSabuBmDk_7PMM623-26" value="THEN SELLER SENT TO CUSTOMER MANUALY" style="rounded=0;whiteSpace=wrap;html=1;" vertex="1" parent="1">
          <mxGeometry x="1780" y="-30" width="150" height="90" as="geometry" />
        </mxCell>
        <mxCell id="rydpSabuBmDk_7PMM623-27" value="" style="endArrow=open;html=1;rounded=0;exitX=1;exitY=0.5;exitDx=0;exitDy=0;entryX=0;entryY=0.5;entryDx=0;entryDy=0;endFill=0;" edge="1" parent="1" target="rydpSabuBmDk_7PMM623-26" source="rydpSabuBmDk_7PMM623-20">
          <mxGeometry width="50" height="50" relative="1" as="geometry">
            <mxPoint x="1700" y="15" as="sourcePoint" />
            <mxPoint x="1770" y="14.5" as="targetPoint" />
          </mxGeometry>
        </mxCell>
      </root>
    </mxGraphModel>
  </diagram>
</mxfile>
